<?xml version="1.0" encoding="iso-8859-1"?>
<!-- Generator: Adobe Illustrator 16.0.0, SVG Export Plug-In . SVG Version: 6.00 Build 0)  -->
<!DOCTYPE svg PUBLIC "-//W3C//DTD SVG 1.1//EN" "http://www.w3.org/Graphics/SVG/1.1/DTD/svg11.dtd">
<svg version="1.1" id="Capa_1" xmlns="http://www.w3.org/2000/svg" xmlns:xlink="http://www.w3.org/1999/xlink" x="0px" y="0px"
	 width="32px" height="32px" viewBox="0 0 32 32" style="enable-background:new 0 0 32 32;" xml:space="preserve">
<g>
	<path d="M16,0C7.178,0,0,7.178,0,16s7.178,16,16,16c8.82,0,16-7.178,16-16S24.82,0,16,0z M16,29C8.832,29,3,23.168,3,16
		S8.832,3,16,3s13,5.832,13,13S23.168,29,16,29z M23.167,12c0,1.289-1.045,2.332-2.333,2.332c-1.289,0-2.334-1.043-2.334-2.332
		s1.045-2.334,2.334-2.334C22.122,9.666,23.167,10.711,23.167,12z M11.167,14.332c-1.289,0-2.334-1.043-2.334-2.332
		s1.045-2.334,2.334-2.334c1.287,0,2.333,1.045,2.333,2.334S12.454,14.332,11.167,14.332z M22.177,20.62
		c0.257,0.788-0.177,1.634-0.965,1.889c-1.688,0.546-3.438,0.823-5.212,0.823c-1.773,0-3.525-0.277-5.212-0.823
		C10,22.254,9.567,21.408,9.823,20.62c0.254-0.787,1.1-1.222,1.889-0.966c2.775,0.897,5.802,0.897,8.576,0
		C21.079,19.398,21.923,19.833,22.177,20.62z"/>
</g>
<g>
</g>
<g>
</g>
<g>
</g>
<g>
</g>
<g>
</g>
<g>
</g>
<g>
</g>
<g>
</g>
<g>
</g>
<g>
</g>
<g>
</g>
<g>
</g>
<g>
</g>
<g>
</g>
<g>
</g>
</svg>
